<svg xmlns="http://www.w3.org/2000/svg" xmlns:xlink="http://www.w3.org/1999/xlink" width="100" height="100" viewBox="0 0 100 100">
    <defs>
        <linearGradient id="b" x1="50%" x2="50%" y1="2.12%" y2="100%">
            <stop offset="0%" stop-color="#00CDFF"/>
            <stop offset="100%" stop-color="#1A48FF"/>
        </linearGradient>
        <circle id="a" cx="50" cy="50" r="50"/>
        <radialGradient id="d" cy="16.819%" r="37.258%" fx="50%" fy="16.819%" gradientTransform="matrix(0 .70905 -1.3249 0 .723 -.186)">
            <stop offset="0%" stop-color="#008ED6"/>
            <stop offset="100%" stop-color="#0045D2"/>
        </radialGradient>
        <radialGradient id="f" cy="85.117%" r="40.413%" fx="50%" fy="85.117%" gradientTransform="matrix(0 .70905 -1.47733 0 1.757 .497)">
            <stop offset="0%" stop-color="#008ED6"/>
            <stop offset="100%" stop-color="#002674" stop-opacity="0"/>
        </radialGradient>
        <path id="e" d="M14.518 85.229L49.8 49.333l35.624 35.955C76.369 94.376 63.842 100 50 100c-13.871 0-26.424-5.649-35.482-14.771zm.196-70.653C23.756 5.568 36.228 0 50 0c13.742 0 26.19 5.544 35.228 14.517L49.799 49.333 14.714 14.576z"/>
        <circle id="h" cx="50" cy="50" r="51.333"/>
        <filter id="g" width="118.5%" height="118.5%" x="-9.3%" y="-9.3%" filterUnits="objectBoundingBox">
            <feMorphology in="SourceAlpha" radius="8" result="shadowSpreadInner1"/>
            <feGaussianBlur in="shadowSpreadInner1" result="shadowBlurInner1" stdDeviation="5.5"/>
            <feOffset in="shadowBlurInner1" result="shadowOffsetInner1"/>
            <feComposite in="shadowOffsetInner1" in2="SourceAlpha" k2="-1" k3="1" operator="arithmetic" result="shadowInnerInner1"/>
            <feColorMatrix in="shadowInnerInner1" result="shadowMatrixInner1" values="0 0 0 0 0 0 0 0 0 0 0 0 0 0 0 0 0 0 0.700237772 0"/>
            <feGaussianBlur in="SourceAlpha" result="shadowBlurInner2" stdDeviation="2.5"/>
            <feOffset in="shadowBlurInner2" result="shadowOffsetInner2"/>
            <feComposite in="shadowOffsetInner2" in2="SourceAlpha" k2="-1" k3="1" operator="arithmetic" result="shadowInnerInner2"/>
            <feColorMatrix in="shadowInnerInner2" result="shadowMatrixInner2" values="0 0 0 0 0 0 0 0 0 0 0 0 0 0 0 0 0 0 0.56957654 0"/>
            <feMerge>
                <feMergeNode in="shadowMatrixInner1"/>
                <feMergeNode in="shadowMatrixInner2"/>
            </feMerge>
        </filter>
        <circle id="i" cx="50" cy="50" r="38"/>
        <circle id="k" cx="50" cy="50" r="50"/>
    </defs>
    <g fill="none" fill-rule="evenodd">
        <g>
            <mask id="c" fill="#fff">
                <use xlink:href="/assets/sprite.svg#a"/>
            </mask>
            <use fill="url(#b)" fill-rule="nonzero" xlink:href="/assets/sprite.svg#a"/>
            <g fill-rule="nonzero" mask="url(#c)">
                <use fill="url(#d)" xlink:href="/assets/sprite.svg#e"/>
                <use fill="url(#f)" xlink:href="/assets/sprite.svg#e"/>
            </g>
            <g fill="#000" fill-rule="nonzero" mask="url(#c)">
                <use filter="url(#g)" xlink:href="/assets/sprite.svg#h"/>
            </g>
            <mask id="j" fill="#fff">
                <use xlink:href="/assets/sprite.svg#i"/>
            </mask>
            <circle cx="50" cy="50" r="38.667" stroke="#FFF" stroke-opacity=".246" stroke-width="1.333"/>
            <path fill-rule="nonzero" stroke="#FFF" stroke-opacity=".246" stroke-width="1.333" d="M73.393 31.793A30.988 30.988 0 0 0 50 21.183a30.986 30.986 0 0 0-23.193 10.383" mask="url(#j)"/>
            <path fill-rule="nonzero" stroke="#FFF" stroke-opacity=".246" stroke-width="1.333" d="M73.393 78.732A30.988 30.988 0 0 0 50 68.122a30.986 30.986 0 0 0-23.193 10.383" mask="url(#j)" transform="matrix(1 0 0 -1 0 146.854)"/>
        </g>
        <g fill="#FFF" fill-opacity=".249" fill-rule="nonzero" transform="translate(20 47)">
            <rect width="6" height="6" x="53" rx="3"/>
            <rect width="6" height="6" rx="3"/>
        </g>
        <circle cx="50" cy="50" r="49" stroke="#000" stroke-width="2"/>
        <path fill="#FFF" d="M52.04 44.048c0-2.142-.748-2.72-1.938-2.72s-1.938.646-1.938 2.346v2.55h-3.536v-2.312c0-3.808 1.904-5.984 5.576-5.984 3.672 0 5.576 2.176 5.576 5.984 0 7.48-7.446 10.268-7.446 14.178 0 .17 0 .34.034.51h7.072V62H44.628v-2.924c0-7.004 7.412-8.16 7.412-15.028z"/>
    </g>
</svg>
