<svg xmlns="http://www.w3.org/2000/svg" width="65" height="51" viewBox="0 0 65 51">
    <g fill="none" fill-rule="evenodd">
        <path fill="#FCFCFC" d="M11.894 8c-2.394 0-4.187.25-5.41 1.415C5.261 10.582 5 12.292 5 14.575v22.85c0 2.283.261 3.993 1.484 5.16C7.707 43.75 9.5 44 11.894 44h40.212c2.394 0 4.163-.25 5.386-1.415C58.715 41.418 59 39.708 59 37.425v-22.85c0-2.283-.285-3.993-1.508-5.16C56.269 8.25 54.5 8 52.106 8H11.894z"/>
        <path fill="#F05542" d="M47.5 14c-3.027 0-5.5 2.473-5.5 5.5s2.473 5.5 5.5 5.5 5.5-2.473 5.5-5.5-2.473-5.5-5.5-5.5z"/>
        <path fill="#FCD062" d="M40.5 14c-3.027 0-5.5 2.473-5.5 5.5s2.473 5.5 5.5 5.5 5.5-2.473 5.5-5.5-2.473-5.5-5.5-5.5z"/>
        <path fill="#000" d="M11 36v2h7v-2h-6zM22 36v2h7v-2h-6z"/>
    </g>
</svg>
