<svg xmlns="http://www.w3.org/2000/svg" width="20" height="20" viewBox="0 0 20 20">
    <path fill="#91FF4A" fill-rule="evenodd" d="M18.617 4.702h-3.134c-.26 0-.5.144-.624.373 0 0-1.25 2.302-1.651 3.077-1.08 2.086-1.78 1.431-1.78.463V5.278c0-.581-.47-1.052-1.051-1.052H8.021A1.887 1.887 0 0 0 6.353 5S7.55 4.807 7.55 6.419c0 .4.02 1.55.039 2.514a.695.695 0 0 1-1.212.48 20.515 20.515 0 0 1-2.38-4.327.66.66 0 0 0-.6-.384H.55a.484.484 0 0 0-.457.653c.864 2.371 4.589 9.824 8.84 9.824h1.789c.39 0 .707-.317.707-.707v-1.08a.695.695 0 0 1 1.17-.507l2.141 2.012c.193.181.447.282.71.282h2.813c1.356 0 1.356-.942.617-1.67-.52-.512-2.399-2.492-2.399-2.492a.97.97 0 0 1-.075-1.26c.607-.8 1.6-2.107 2.021-2.667.576-.766 1.618-2.388.19-2.388z"/>
</svg>
