<svg xmlns="http://www.w3.org/2000/svg" width="65" height="51" viewBox="0 0 65 51">
    <path fill="#E9832C" fill-rule="evenodd" d="M40.122 45.455c3.835 0 7.997 1.315 12.603 5.396.461.409 1.075-.1.673-.607-4.527-5.715-8.713-6.803-12.888-7.723-5.107-1.126-7.734-4-9.565-7.154-.364-.628-.528-.517-.56.29-.04.986.028 2.292.248 3.577-.205.01-.413.007-.62.007-7.307 0-13.23-5.923-13.23-13.229 0-7.306 5.923-13.23 13.23-13.23 7.305 0 13.228 5.924 13.228 13.23 0 .52-.025 1.034-.084 1.538-.966-.174-2.867-.194-4.201-.079-.502.044-.431.277-.052.346 4.373.79 7.378 3.5 8.064 8.418.016.113.164.147.223.05a19.92 19.92 0 0 0 2.833-10.273C50.024 14.96 41.064 6 30.012 6S10 14.96 10 26.012s8.96 20.013 20.012 20.013c2.932 0 5.841-.57 10.11-.57zm1.49-7.266c.89.753 1.16 1.648.69 2.279-.262.346-.687.537-1.195.537-.5 0-1.009-.185-1.362-.493-.81-.708-1.047-1.855-.519-2.506.207-.255.542-.396.944-.396.49 0 1.001.206 1.442.579zm3.683-.672c-.303 0-.685-.355-1.134-1.057-.444-.692-.606-1.486-.387-1.888.146-.266.45-.381.833-.236.743.28 1.035 1.417 1.113 1.941.13.877-.147 1.24-.425 1.24z"/>
</svg>
