<svg xmlns="http://www.w3.org/2000/svg" width="220" height="24" viewBox="0 0 220 24">
    <g fill="#1D0130" fill-rule="evenodd">
        <path fill-rule="nonzero" d="M.005.007c3.64.014 7.277-.029 10.918.01 1.845.004 3.65.986 4.558 2.519.698 1.428.514 3.056.444 4.584-.055 1.594-1.337 2.894-2.813 3.497-1.666.607-3.481.398-5.217.422 2.559 3.521 5.212 6.98 7.706 10.544 1.062 1.13-.354 2.81-1.77 2.335-.849-.55-1.372-1.424-1.97-2.193-2.44-3.355-4.923-6.68-7.377-10.021-.24-.475-.728-.655-1.227-.774-.05 3.915.05 7.834-.045 11.75.025 1.351-1.82 1.603-2.788.977C.005 23.144.005 22.48 0 21.863.015 14.579.005 7.295.005.007zM3.247 3.09v4.86c2.528-.015 5.057.037 7.586-.006.783-.014 1.96-.294 1.885-1.248-.055-1.19.529-3.188-1.197-3.516-2.743-.232-5.516-.024-8.274-.09zM29.587 1.029c.377-1.508 2.778-1.29 2.99.204 2.083 6.54 3.945 13.146 5.988 19.7.161.71.529 1.418.413 2.15-.498 1.094-2.3 1.284-2.889.157-.77-1.408-1.057-2.996-1.63-4.48-2.305.019-4.61.019-6.915.005-.539 1.493-.866 3.072-1.636 4.48-.599 1.132-2.42.927-2.899-.19-.07-.761.282-1.484.468-2.212 2.079-6.592 3.976-13.241 6.11-19.814zm-1.122 14.649c1.7.005 3.402.005 5.098.005-.84-2.82-1.666-5.646-2.537-8.462-.855 2.82-1.7 5.636-2.561 8.457z"/>
        <path d="M45.01.012h4.266c2.823 6.253 5.65 12.5 8.423 18.776.135-5.796-.02-11.588.075-17.385-.18-1.86 3.372-1.88 3.192-.004.07 7.529.005 15.058.03 22.587h-4.271c-2.818-6.176-5.65-12.343-8.463-18.519-.05 5.787.075 11.579-.06 17.36-.09 1.302-1.918 1.44-2.827.808-.445-.67-.35-1.486-.375-2.236.025-7.13.005-14.256.01-21.387z"/>
        <path fill-rule="nonzero" d="M68.114 2.204c-.451-1.096.497-2.296 1.746-2.168 2.343.043 4.726-.199 7.048.185 2.434.527 3.276 2.983 4.295 4.837 1.324 2.708 3.526 5.52 2.558 8.664-.802 2.329-2.252 4.401-3.296 6.635-.732 1.64-2.006 3.338-4.048 3.514-2.313.204-4.65.118-6.973.066-1.274.09-1.741-1.47-1.2-2.343.558-1.014 1.992-.583 2.97-.749-.03-5.894-.01-11.794-.014-17.688-1.054-.095-2.499.128-3.086-.953zm6.356.853c-.02 5.961-.005 11.927-.01 17.892.878-.109 2.132.067 2.564-.877 1.209-2.267 2.468-4.52 3.496-6.867.728-1.74-.526-3.41-1.259-4.936-.993-1.641-1.515-3.552-2.82-5.003-.646-.128-1.308-.2-1.97-.209zM96.483.304c1.85-.817 4.174.095 5.127 1.752 1.027 1.752 1.87 3.59 2.857 5.361 1.132 1.904 1.985 4.164 1.272 6.353-.753 2.128-1.96 4.08-2.957 6.111-.783 1.415-1.467 3.153-3.167 3.775-1.935.912-4.403-.085-5.33-1.875-1.437-2.621-2.948-5.233-4.015-8.01-1.062-3.24 1.262-6.107 2.608-8.885.952-1.667 1.566-3.832 3.605-4.582zm.883 3.01c-1.446 2.35-2.673 4.839-3.84 7.327-.952 2.199.783 4.202 1.68 6.111.853 1.368 1.262 3.058 2.514 4.165.214-.048.643-.138.858-.186 1.401-2.065 2.358-4.382 3.575-6.548a4.142 4.142 0 0 0 .06-4.169c-1.152-2.265-2.234-4.572-3.58-6.738l-.893-.209-.374.247z"/>
        <path d="M113.012 0h4.04c1.314 1.813 2.638 3.621 3.951 5.439 1.314-1.818 2.638-3.626 3.951-5.439h4.041c0 7.285-.005 14.57.005 21.85-.005.725.005 1.864-.979 2.02-.864.314-2.233-.023-2.223-1.081-.12-6.203-.02-12.42-.045-18.627-.954 1.414-2.057 2.743-2.907 4.214-.35.973-.3 2.648-1.823 2.558-1.548.119-1.503-1.609-1.878-2.582-.849-1.461-1.948-2.785-2.892-4.19.015 5.894-.005 11.793.01 17.687-.065.66.085 1.766-.814 1.965-1.089.55-2.652-.176-2.427-1.452-.03-7.451 0-14.907-.01-22.362z"/>
        <path fill-rule="nonzero" d="M164.559.29c1.858-.811 4.176.167 5.1 1.83 1.21 2.193 2.338 4.425 3.512 6.638 1.05 1.933 1.124 4.317.1 6.274-1.199 2.35-2.323 4.744-3.702 7.004-.974 1.634-3.297 2.46-5.115 1.648-2.059-.774-2.698-2.963-3.672-4.644-1.01-2.166-2.548-4.213-2.763-6.63-.23-2.721 1.659-4.958 2.753-7.318 1.019-1.733 1.603-4.065 3.787-4.801zm.859 2.921c-1.444 2.356-2.673 4.84-3.857 7.323-.959 1.947.4 3.847 1.284 5.542.914 1.548 1.509 3.282 2.643 4.702 1.144.598 1.588-.84 2.038-1.548 1.03-2.318 2.698-4.426 3.247-6.91-.125-2.584-1.973-4.716-2.977-7.048-.575-.835-.95-2.73-2.378-2.06zM181.012.007c3.72.02 7.441-.038 11.162.02 2.314.099 4.634 1.817 4.773 4.114.035 1.84.374 4.105-1.247 5.467-1.76 1.741-4.494 1.438-6.798 1.433 2.579 3.578 5.307 7.066 7.796 10.697 1.127 1.324-1.257 3.127-2.364 1.793-2.574-3.103-4.813-6.458-7.247-9.666-.878-1.04-1.437-2.45-2.784-3.023-.15 3.972.06 7.949-.1 11.916.01 1.642-3.142 1.651-3.142.005-.124-7.58-.015-15.172-.05-22.756zm3.242 7.95c2.838-.1 5.705.203 8.523-.148 1.447-.327.863-2.064.953-3.085.165-.91-.708-1.642-1.63-1.594-2.614-.11-5.228 0-7.841-.043-.005 1.623-.005 3.246-.005 4.87z"/>
        <path d="M207.787 4.21c1.405-1.588 2.626-3.83 5.033-4.095 2.003-.156 4.03-.137 6.038-.038 1.43.35 1.505 2.479.115 2.943-1.71.228-3.443-.005-5.157.09-1.45-.151-2.008 1.375-2.845 2.209-1.335 1.914-3.622 3.492-3.687 5.98-.035 2.702-.08 5.408.02 8.11-.095 1.075 1.061 1.563 2.028 1.459 2.152-.048 4.35.194 6.477-.147 1.67-.882.638-3.118.917-4.583-1.27-.01-2.556.09-3.812-.104-1.235-.488-1.23-2.28-.084-2.867 2.366-.256 4.758-.043 7.134-.11-.14 2.57.31 5.2-.269 7.73-.627 2.417-3.443 3.412-5.824 3.18-2.785-.241-6.143.74-8.395-1.298-1.854-1.507-1.42-4.01-1.455-6.062.064-2.232-.135-4.473.1-6.696.368-2.294 2.326-3.886 3.666-5.701zM141.95 14.193a11.149 11.149 0 0 1 4.203.014c1.275.908.714 2.828.779 4.205.009 1.659-1.77 1.61-2.887 1.575-1.145.04-3.036.103-2.975-1.634.07-1.347-.533-3.425.88-4.16z"/>
    </g>
</svg>
