<svg xmlns="http://www.w3.org/2000/svg" width="65" height="51" viewBox="0 0 65 51">
    <g fill="#FFF" fill-rule="nonzero">
        <path d="M9 10.778v7.59l20.198-2.252V7.9L9 10.778m6.445 8.051v26.007h7.395V18.063l-7.395.766M52.68 9.746c-2.327-2.224-5.738-3.136-9.469-2.593V15.3c1.511-.085 2.735.482 3.28 1.625.862 1.8-.027 4.503-2.123 7.006-3.235 3.863-11.839 11.77-11.839 11.77l12.351-.41c7.547-7.46 10.257-11.989 10.743-17.64.255-2.99-.817-5.87-2.944-7.906M56.058 45H31.336l-.003-7.73 24.726-.76V45z"/>
        <path d="M41.698 7.404c-7.204 1.563-10.742 6.96-10.333 15.766l7.68-.694c-.349-4.975 1.145-6.155 2.657-6.804l-.004-8.268"/>
    </g>
</svg>
