<svg xmlns="http://www.w3.org/2000/svg" xmlns:xlink="http://www.w3.org/1999/xlink" width="65" height="51" viewBox="0 0 65 51">
    <defs>
        <path id="a" d="M.01.159h38.45v50.036H.01z"/>
    </defs>
    <g fill="none" fill-rule="evenodd">
        <g transform="translate(13)">
            <mask id="b" fill="#fff">
                <use xlink:href="/assets/sprite.svg#a"/>
            </mask>
            <path fill="#FACA22" d="M6.12 16.043C10.987 12.447 26.591.159 26.591.159V20.67h12.393V50H3.707C1.67 50 0 48.017 0 46V24.979c0-2.81.239-4.593 6.12-8.936z" mask="url(#b)"/>
        </g>
        <path fill="#C9A521" d="M39.592 20.671v11.886l-21.806 14.7 27.57-8.877V20.671h-5.764"/>
        <path fill="#000" d="M29.627 20.057c1.275-1.504 3.138-2.035 4.16-1.186 1.023.85.819 2.757-.457 4.26-1.274 1.504-3.137 2.034-4.16 1.185-1.022-.85-.817-2.756.457-4.26"/>
    </g>
</svg>
