<svg xmlns="http://www.w3.org/2000/svg" xmlns:xlink="http://www.w3.org/1999/xlink" width="41" height="41" viewBox="0 0 41 41">
    <defs>
        <circle id="a" cx="20.5" cy="20.5" r="20.5"/>
        <linearGradient id="b" x1="50%" x2="50%" y1="25.706%" y2="90.493%">
            <stop offset="0%" stop-color="#00A3DF"/>
            <stop offset="100%" stop-color="#0072DD"/>
        </linearGradient>
        <radialGradient id="d" r="66%" fx="50%" fy="50%">
            <stop offset="0%"/>
            <stop offset="100%" stop-color="#002259"/>
        </radialGradient>
        <path id="f" d="M20.408 40.816c11.271 0 20.009-9.137 20.009-20.408S31.679.34 20.408.34.456 9.137.456 20.408s8.681 20.408 19.952 20.408z"/>
        <filter id="e" width="110%" height="109.9%" x="-5%" y="-4.9%" filterUnits="objectBoundingBox">
            <feGaussianBlur in="SourceAlpha" result="shadowBlurInner1" stdDeviation="2"/>
            <feOffset in="shadowBlurInner1" result="shadowOffsetInner1"/>
            <feComposite in="shadowOffsetInner1" in2="SourceAlpha" k2="-1" k3="1" operator="arithmetic" result="shadowInnerInner1"/>
            <feColorMatrix in="shadowInnerInner1" result="shadowMatrixInner1" values="0 0 0 0 0.425400152 0 0 0 0 0.811459425 0 0 0 0 1 0 0 0 1 0"/>
            <feOffset dy="2" in="SourceAlpha" result="shadowOffsetInner2"/>
            <feComposite in="shadowOffsetInner2" in2="SourceAlpha" k2="-1" k3="1" operator="arithmetic" result="shadowInnerInner2"/>
            <feColorMatrix in="shadowInnerInner2" result="shadowMatrixInner2" values="0 0 0 0 0.396284299 0 0 0 0 0.797324015 0 0 0 0 1 0 0 0 1 0"/>
            <feMerge>
                <feMergeNode in="shadowMatrixInner1"/>
                <feMergeNode in="shadowMatrixInner2"/>
            </feMerge>
        </filter>
        <circle id="g" cx="20.5" cy="20.5" r="20.5"/>
    </defs>
    <g fill="none" fill-rule="evenodd">
        <mask id="c" fill="#fff">
            <use xlink:href="/assets/sprite.svg#a"/>
        </mask>
        <circle cx="20.5" cy="20.5" r="20.25" stroke="#000" stroke-width=".5"/>
        <circle cx="20.408" cy="14.408" r="20.408" fill="url(#b)" fill-rule="nonzero" mask="url(#c)"/>
        <circle cx="20.5" cy="20.5" r="16.5" fill="url(#d)" fill-rule="nonzero"/>
        <path fill="#FFF" fill-rule="nonzero" d="M12.486 16.429h1.249l-1.408 4.163L13.833 25h-1.42l-1.103-3.392L10.196 25H8.935l1.506-4.408-1.408-4.163h1.396l1.016 3.159 1.04-3.16zm2.445 2.032v-.955c1.04 0 1.273-.502 1.481-1.077h.906V25h-1.347v-6.539h-1.04zm4.845-.061v4.629c0 .612.269.844.697.844.429 0 .698-.232.698-.844V18.4c0-.612-.269-.845-.698-.845-.428 0-.697.233-.697.845zm-1.347 4.543v-4.457c0-1.372.722-2.155 2.044-2.155 1.323 0 2.045.783 2.045 2.155v4.457c0 1.371-.722 2.155-2.045 2.155-1.322 0-2.044-.784-2.044-2.155zm7.22-4.408c0-.772-.27-.98-.698-.98-.429 0-.698.233-.698.845v.918H22.98v-.832c0-1.372.685-2.155 2.008-2.155 1.322 0 2.008.783 2.008 2.155 0 2.694-2.682 3.698-2.682 5.106 0 .061 0 .122.013.184h2.546V25H22.98v-1.053c0-2.523 2.669-2.939 2.669-5.412zm1.453 4.91V22.22l2.449-5.791h1.47v5.791h.636v1.225h-.637V25h-1.322v-1.555h-2.596zm1.237-1.225h1.359V19l-1.36 3.22z"/>
        <g fill="#000" fill-rule="nonzero">
            <use filter="url(#e)" xlink:href="/assets/sprite.svg#f"/>
        </g>
        <circle cx="20.5" cy="20.5" r="20" stroke="#000"/>
    </g>
</svg>
