<svg xmlns="http://www.w3.org/2000/svg" xmlns:xlink="http://www.w3.org/1999/xlink" width="41" height="41" viewBox="0 0 41 41">
    <defs>
        <linearGradient id="b" x1="50%" x2="50%" y1="98.471%" y2="10.957%">
            <stop offset="0%" stop-color="#0054ED"/>
            <stop offset="100%" stop-color="#0097DC"/>
        </linearGradient>
        <circle id="a" cx="20.5" cy="20.5" r="20.5"/>
        <filter id="c" width="119.5%" height="119.5%" x="-9.8%" y="-9.8%" filterUnits="objectBoundingBox">
            <feGaussianBlur in="SourceAlpha" result="shadowBlurInner1" stdDeviation="3.5"/>
            <feOffset dy="-1" in="shadowBlurInner1" result="shadowOffsetInner1"/>
            <feComposite in="shadowOffsetInner1" in2="SourceAlpha" k2="-1" k3="1" operator="arithmetic" result="shadowInnerInner1"/>
            <feColorMatrix in="shadowInnerInner1" values="0 0 0 0 0 0 0 0 0 0 0 0 0 0 0 0 0 0 0.868252841 0"/>
        </filter>
        <linearGradient id="d" x1="50%" x2="50%" y1="91.495%" y2="26.111%">
            <stop offset="0%" stop-color="#006CB1"/>
            <stop offset="100%" stop-color="#00B9FF"/>
        </linearGradient>
        <radialGradient id="f" fx="50%" fy="50%">
            <stop offset="0%" stop-color="#002259"/>
            <stop offset="100%"/>
        </radialGradient>
    </defs>
    <g fill="none" fill-rule="evenodd">
        <mask id="e" fill="#fff">
            <use xlink:href="/assets/sprite.svg#a"/>
        </mask>
        <use fill="url(#b)" xlink:href="/assets/sprite.svg#a"/>
        <use fill="#000" filter="url(#c)" xlink:href="/assets/sprite.svg#a"/>
        <circle cx="20.408" cy="14.408" r="20.408" fill="url(#d)" fill-rule="nonzero" mask="url(#e)"/>
        <circle cx="20.5" cy="20.5" r="16.5" fill="url(#f)" fill-rule="nonzero"/>
        <path fill="#FFF" fill-rule="nonzero" d="M16.927 16.429h1.249l-1.409 4.163L18.273 25h-1.42l-1.102-3.392L14.637 25h-1.261l1.506-4.408-1.409-4.163h1.396l1.017 3.159 1.04-3.16zm2.444 2.032v-.955c1.041 0 1.274-.502 1.482-1.077h.906V25h-1.347v-6.539h-1.04zm3.523 4.482v-4.384c0-1.445.661-2.228 2.057-2.228 1.322 0 2.008.783 2.008 2.155v.22h-1.273V18.4c0-.612-.27-.845-.698-.845-.478 0-.747.233-.747 1.053v1.568c.232-.49.649-.76 1.249-.76.992 0 1.494.698 1.494 1.96v1.567c0 1.371-.723 2.155-2.045 2.155-1.323 0-2.045-.784-2.045-2.155zm2.045-2.302c-.429 0-.698.232-.698.845v1.543c0 .612.27.832.698.832.428 0 .698-.22.698-.832v-1.543c0-.613-.27-.845-.698-.845z"/>
    </g>
</svg>
