<svg xmlns="http://www.w3.org/2000/svg" width="2048" height="1026" viewBox="0 0 2048 1026">
    <defs>
        <radialGradient id="a" cx="49.607%" cy="2.745%" r="39.827%" fx="49.607%" fy="2.745%" gradientTransform="matrix(0 1 -.50024 0 .51 -.469)">
            <stop offset="0%" stop-color="#440F3A"/>
            <stop offset="100%" stop-color="#0C0419"/>
        </radialGradient>
        <linearGradient id="b" x1="50%" x2="50%" y1="0%" y2="100%">
            <stop offset="0%" stop-color="#0C0419" stop-opacity="0"/>
            <stop offset="100%" stop-color="#0C0419"/>
        </linearGradient>
    </defs>
    <g fill="none" fill-rule="evenodd">
        <path fill="url(#a)" d="M0 0h2047v1024H0z"/>
        <path fill="#FFF" fill-opacity=".04" d="M1962.859 514.5L1750 300.753 1792.566 258 2048 514.5 1792.566 771 1750 728.257 1962.859 514.5zm-171.063.995L1664 387.619 1706.602 345 1877 515.495 1706.602 686 1664 643.371l127.796-127.876zm-170.46 0L1579 472.753 1621.337 430 1706 515.495 1621.337 601 1579 558.237l42.337-42.742zM1621.733 2l-298.616 298.67 42.662 42.67 170.63-170.67L1707.045 2h85.315l-383.93 384 42.662 42.67L1877.686 2H1963l-426.593 426.67-42.652 42.67 42.652 42.66-511.907 512-511.907-512 42.652-42.66-42.652-42.668L86 2h85.314l426.593 426.67L640.57 386 256.64 2h85.314l170.639 170.67 170.629 170.67 42.662-42.67L427.268 2h85.325l255.953 256 42.652-42.66L597.908 2h85.314L853.86 172.67 896.523 130 768.546 2h85.315l85.314 85.34 42.663-42.67L939.175 2h170.65l-42.663 42.67 42.663 42.67L1195.139 2h85.315l-127.977 128 42.662 42.67L1365.78 2h85.314L1237.8 215.34l42.653 42.66L1536.407 2h85.325zM1367 514.495L1026 173 685 514.495 1026 856l341-341.505zm-598 .005L1025 771l256-256.5L1025 258 769 514.5zM1026 88l426 426.495L1026 941 600 514.495 1026 88zm510.745 852.859L1622 1026h-85.255L1281 770.566 1323.628 728l213.117 212.859zM1407.694 643L1792 1026h-85.398l-170.806-170.215L1365 685.559 1407.694 643zM1963 1026h-85.163l-340.674-341.1v.01L1452 599.64l42.587-42.64 42.576 42.64L1963 1026zM0 514.5L255.434 258 298 300.753 85.141 514.5 298 728.257 255.434 771 0 514.5zm171 .995L341.398 345 384 387.619 256.204 515.495 384 643.37 341.398 686 171 515.495zm171 0L426.663 430 469 472.753l-42.337 42.742L469 558.237 426.663 601 342 515.495zM426 1026l85.255-85.141 214.432-214.285 42.627 42.566L511.255 1026H426zm-84.602 0H256l385.413-384.334 42.694 42.56-171.903 171.559L341.398 1026zm169.439-341.102L170.163 1026H85l425.837-426.362 43.877-44.768 42.587 42.638-86.464 87.403v-.013zM1023 1026h-85l42.5-42 42.5 42zm-83.943-85.787L852.5 1026H767l129.676-128.504 42.381 42.717zm-85.805-85.963L681.33 1026H596l214.582-214.354 42.67 42.604zM213 812.33L170.396 855 0 684.33V599l213 213.33zm-86 85.917L84.663 941 0 855.505V770l127 128.247zM0 941l42 42.505L0 1026v-85zm213-725.33L0 429v-85.33L170.396 173 213 215.67zm-86-85.925L0 258v-85.5L84.663 87 127 129.745zM0 87V2l42 42.5L0 87zm1025 939l42.5-42 42.5 42h-85zm85-84.663L1152.745 899 1281 1026h-85.5l-85.5-84.663zm86-85.733L1238.67 813 1452 1026h-85.33L1196 855.604zm639-43.274L2048 599v85.33L1877.604 855 1835 812.33zm86 85.917L2048 770v85.505L1963.337 941 1921 898.247zM2048 941v85l-42-42.495L2048 941zm-213-725.33l42.604-42.67L2048 343.67V429l-213-213.33zm86-85.925L1963.337 87 2048 172.5V258l-127-128.255zM2048 87l-42-42.5L2048 2v85z"/>
        <path fill="#FFF" d="M1196 515.495L1025.5 686 855 515.495 1025.5 345 1196 515.495zm-256 0L1025.5 601l85.5-85.505L1025.5 430 940 515.495z" opacity=".047"/>
        <path fill="url(#b)" fill-rule="nonzero" d="M0 513h2048v511H0z" transform="translate(0 2)"/>
    </g>
</svg>
