<svg xmlns="http://www.w3.org/2000/svg" width="16" height="316" viewBox="0 0 16 316">
    <g fill="#403A48" fill-rule="nonzero">
        <path d="M7.97 10.138H6.652L3.965 5.742 1.23 10.138H0l3.322-5.223L.226.144H1.51l2.481 3.958L6.494.144h1.237l-3.096 4.73 3.336 5.264zm6.932-7.643c0 .638-.179 1.16-.536 1.566-.358.405-.865.676-1.521.813v.055c.802.1 1.397.355 1.784.765.387.41.581.948.581 1.614 0 .952-.33 1.685-.991 2.197-.661.513-1.6.77-2.817.77-.528 0-1.013-.04-1.452-.12-.44-.08-.867-.22-1.282-.42v-1.08c.433.213.894.376 1.384.488.49.112.954.168 1.391.168 1.728 0 2.591-.677 2.591-2.03 0-1.213-.952-1.82-2.857-1.82h-.985v-.977h.998c.78 0 1.397-.172 1.853-.516.456-.344.684-.821.684-1.432 0-.487-.168-.87-.503-1.148-.335-.278-.79-.417-1.364-.417-.437 0-.85.059-1.237.177-.387.119-.83.338-1.326.657l-.574-.766c.41-.324.883-.578 1.418-.762A5.155 5.155 0 0 1 11.833 0c.97 0 1.725.222 2.263.667.537.444.806 1.053.806 1.828zM13.488 24.138h1v5h-1v-5zm0 13h1v5h-1v-5zm0 13h1v5h-1v-5zm0 13h1v5h-1v-5zm0 13h1v5h-1v-5zm0 13h1v5h-1v-5zm0 13h1v5h-1v-5zm0 13h1v5h-1v-5zm0 13h1v5h-1v-5zm0 13h1v5h-1v-5zm0 13h1v5h-1v-5zm0 13h1v5h-1v-5zm0 13h1v5h-1v-5zm0 13h1v5h-1v-5zm0 13h1v5h-1v-5zm0 13h1v5h-1v-5zm0 13h1v5h-1v-5zm0 13h1v5h-1v-5zm0 13h1v5h-1v-5zm0 13h1v5h-1v-5zm0 13h1v5h-1v-5zm0 13h1v5h-1v-5zm0 13h1v5h-1v-5z"/>
    </g>
</svg>
