<svg xmlns="http://www.w3.org/2000/svg" width="57" height="72" viewBox="0 0 57 72">
    <g fill="none" fill-rule="evenodd">
        <path fill="#FFF" d="M4 0h37l16 16v52a4 4 0 0 1-4 4H4a4 4 0 0 1-4-4V4a4 4 0 0 1 4-4z"/>
        <circle cx="29" cy="62" r="5.5" stroke="#6579DB"/>
        <circle cx="29" cy="62" r="3" fill="#6579DB"/>
        <rect width="32" height="3" x="12" y="18" fill="#CFCDD2" rx="1.5"/>
        <rect width="32" height="1" x="12" y="37" fill="#CFCDD2" rx=".5"/>
        <rect width="24" height="1" x="16" y="44" fill="#CFCDD2" rx=".5"/>
        <rect width="32" height="1" x="12" y="51" fill="#CFCDD2" rx=".5"/>
        <rect width="22" height="3" x="17" y="26" fill="#CFCDD2" rx="1.5"/>
        <path fill="#E8E8E8" d="M41 0l16 16H44a3 3 0 0 1-3-3V0z"/>
    </g>
</svg>
