<svg xmlns="http://www.w3.org/2000/svg" width="148" height="40" viewBox="0 0 148 40">
    <defs>
        <linearGradient id="a" x1="50%" x2="50%" y1="100%" y2="0%">
            <stop offset="0%" stop-color="#3BFF82"/>
            <stop offset="26.985%" stop-color="#67FF65"/>
            <stop offset="51.389%" stop-color="#8EFF4C"/>
            <stop offset="76.472%" stop-color="#B5FF33"/>
            <stop offset="100%" stop-color="#D0FF22"/>
        </linearGradient>
    </defs>
    <g fill="none" fill-rule="evenodd">
        <path fill="#22FED5" fill-rule="nonzero" d="M58.067 21.663c.004-.064.01-.128.018-.192l1.43-12.1c.02-.168.052-.333.095-.494l-4.829-3.52v.007l-4.79 2.857.336-2.857-3.982 1.504-1.066 9.01h.18c.49.002.977.101 1.43.293a3.573 3.573 0 0 1 1.916 2.002l.721-6.03 7.05-4.114-1.523 11.128-3.131 2.236v-.007l-2.703-1.35c.1.518.082 1.039-.039 1.53l5.873 2.934 3.014-2.837zm9.144 5.635l-.29.188a3.577 3.577 0 0 1-1.73.564h-.257a3.627 3.627 0 0 1-2.196-.747l-14.992.018.476-4.068a3.575 3.575 0 0 1-.576.461l-4.343 2.803-.097.812h-1.161l-.255.164a3.484 3.484 0 0 1-1.723.55h-.257a3.577 3.577 0 0 1-2.144-.714h-1.424l-.057.714 5.999 7.857v.114l.071-.035.072.092.214-.221 4.404-2.057.515-4.286 63.712 6.507.326-.445c.158-.624.338-1.162.532-1.462l4.325-6.569c-.9.415-1.76.676-2.345.676h-4.504a3.577 3.577 0 0 1-2.445-.965l-1.508.002a3.576 3.576 0 0 1-2.446.963h-4.519a3.577 3.577 0 0 1-2.095-.659 3.434 3.434 0 0 1-1.616.488h-.257a3.577 3.577 0 0 1-2.217-.764l-.015-.012-4.69.005-.843.42a3.578 3.578 0 0 1-3.84-.414l-6.486.008-.348.221a3.484 3.484 0 0 1-1.723.55h-.236c-.802 0-1.58-.27-2.21-.764l-.001-.001-4.8.006zm-4.935-4.862l1.615 1.254 2.354-.003 1.247-.81a3.565 3.565 0 0 1-.113-1.4l-.093.059-1.022-1.029.79-6.42a3.57 3.57 0 0 1-.962-2.752l-1.637.572a3.499 3.499 0 0 1-.248.078l-1.375 9.008a3.57 3.57 0 0 1-.556 1.443zm9.083-14.365c.003.166-.005.334-.026.5l-.376 3.072h1.198l-.414 3.493a3.574 3.574 0 0 1 3.446 2.9l.243 1.257a3.57 3.57 0 0 1-1.559 3.671l-.866.564.192.151 2.315-.003 1.992-1.267a3.572 3.572 0 0 1-.455-1.172l-.375.234-1.058-.992 1.05-8.843h1.402l.28-2.236c.06-.493.224-.961.472-1.379h-1.724l.529-4.45-4.748 1.643-.336 2.857H71.36zm-.073 10.91l-.183 1.546.81-.527-.244-1.264-.383.245zM68.2 4.588l.123-1.017-4.69 1.822-.055.416 2.965-1.08a3.578 3.578 0 0 1 1.222-.215l-.007.05a3.58 3.58 0 0 1 .442.024zM44.038 20.36l-.185 1.547 1.848-1.193-.243-1.25-1.42.896zm-5.128 3.397h1.129l2.009-17.036c.049-.418.17-.816.353-1.18l-4.143 1.523-.121 1.015-4.533-2.722-2.508 1.699-4.264 4.682-1.093 8.755 4.705 4.007 6.163-3.064-.057.464 2.36 1.857zm6.896-20.512l3.256-1.224a3.613 3.613 0 0 1 3.468.521l.414-.25a3.577 3.577 0 0 1 1.837-.506v-.029c.76.01 1.495.26 2.102.714l3.207 2.302a3.572 3.572 0 0 1 2.22-2.716L67.043.236A3.62 3.62 0 0 1 68.323 0h-.014a3.576 3.576 0 0 1 3.188 1.91c.078-.032.156-.062.237-.089l4.768-1.6c.36-.133.74-.208 1.123-.221l-.029.036a3.57 3.57 0 0 1 3.575 3.993l-.064.528c.48.104.927.306 1.318.588l3.923-2.695a3.578 3.578 0 0 1 3.86-.121l2.074 1.242L96.507 2a3.578 3.578 0 0 1 1.223-.214l-.029.035a3.576 3.576 0 0 1 2.95 1.518l3.47-1.318a3.578 3.578 0 0 1 1.274-.235l-.029-.057c.773 0 3.636.024 4.283.021.758.01 1.495.26 2.102.714l1.287.933a3.576 3.576 0 0 1 2.995-1.611h9.803a3.574 3.574 0 0 1 3.46 2.693l.63 2.485 2.345-3.571a3.576 3.576 0 0 1 2.96-1.607l8.515-.057a3.575 3.575 0 0 1 3.15 1.876 3.568 3.568 0 0 1-.162 3.66L136.36 22.942l10.303 10.628a3.569 3.569 0 0 1 .738 3.897 3.575 3.575 0 0 1-3.32 2.175h-11.203a3.574 3.574 0 0 1-3.446-2.629l-.715-2.557-2.33 3.522a3.576 3.576 0 0 1-2.96 1.607l-8.409.057c-1.409.049-2.82.022-4.225-.079l.002-.015-60.189-6.142-.1.807a3.572 3.572 0 0 1-2.045 2.822l-3.804 1.914c-2.652 1.064-4.29.257-5.72-1.429l-.519-.68a3.575 3.575 0 0 1-3.385 2.424H23.567a3.576 3.576 0 0 1-2.86-1.43l-5.198-6.842-.494 5a3.574 3.574 0 0 1-3.574 3.221H4.29a3.576 3.576 0 0 1-2.696-1.2 3.62 3.62 0 0 1-.879-2.793L4.29 4.943a3.574 3.574 0 0 1 3.575-3.157h7.085a3.576 3.576 0 0 1 3.032 1.678l.829-1.128a3.576 3.576 0 0 1 2.86-1.429h6.928a3.576 3.576 0 0 1 2.932 1.512l.007-.005a3.578 3.578 0 0 1 3.868-.121l2.066 1.278L41.676 2c.392-.14.806-.213 1.223-.214a3.576 3.576 0 0 1 2.907 1.459zm-23.23 14.168l.014-.117-.054.075.04.042zm.92-7.369l.084-.68a3.57 3.57 0 0 1 1.523-2.5l3.45-2.385H21.7l-7.865 10.564 1.137-9.686H7.865L4.29 35.643h7.15l1.358-13.936.072-.078 10.638 14.014h11.526L17.159 17.907l-2.366 1.614 8.258-8.992.444-.485zm10.108 11.342l-3.16-2.229L31.78 8.043l5.934 3.386-.93 8.364-3.181 1.593zm82.97-15.425l1.326.96c.625.451 3.08 3.42 4.932 6.022l4.276 4.771-5.975 9.079c.1.877-.127 1.777-.667 2.514l-4.956 6.761 7.93-.054 6.686-10.114 2.767 10.171h11.203L131.8 23.364 143.746 5.3l-8.515.057-6.807 10.357-2.588-10.357h-9.803l.542.604zm-2.468 2.607l-4.457-3.21h.035l-4.583 2.75.308-2.75-4.27 1.62-1.078 9.165c.443.015.88.111 1.287.286a3.572 3.572 0 0 1 2.102 2.557l.207 1.073.98-8.045 6.835-3.985-1.82 15.609 4.508-.006 1.594-13.225-1.648-1.839zm-11.613 15.078l.728-.001.13-1.071c-.211.404-.5.77-.858 1.072zm-18.188.02l2.672-.003 4.426-2.213-.05.464 2.213 1.742 1.516-.002 2.076-16.947c.056-.456.197-.888.41-1.278l-4.507 1.635-.114 1.015-4.576-2.743-4.478 3.097c-.03.273-.09.545-.184.81l-1.28 3.614a3.57 3.57 0 0 1-1.066 1.526l-.098.78a3.577 3.577 0 0 1 3.352 2.894l.243 1.257a3.57 3.57 0 0 1-1.44 3.595l.885.757zm14.823-3.487l-.191 1.557 1.238-.8-.243-1.265-.804.508zm-18.52.256l.706-.45-.243-1.264-.271.17-.193 1.544zm7.763.95v.015l-3.117-2.229L86.59 8.043l5.934 3.386-.965 8.364-3.189 1.593zm-45.63 9.958l-3.417-2.664 3.689.378-.272 2.286z"/>
        <path fill="#FFF" d="M63.232 9.586a1.08 1.08 0 0 1-1.03-1.193l.366-3.129c.052-.403.33-.74.715-.871l4.64-1.822a1.052 1.052 0 0 1 1.037.157c.3.225.456.593.407.965l-.386 3.3c-.05.409-.327.755-.715.893L63.56 9.52c-.105.04-.216.062-.329.065z"/>
        <path fill="#000" fill-rule="nonzero" d="M68.323 3.571l-.4 3.3-4.705 1.643.415-3.121 4.69-1.822zm0-2.142c-.261.001-.52.05-.765.142l-4.733 1.822a2.143 2.143 0 0 0-1.337 1.75l-.365 3.128a2.142 2.142 0 0 0 2.145 2.386c.244 0 .485-.04.715-.121l4.655-1.643a2.143 2.143 0 0 0 1.43-1.75l.386-3.3a2.142 2.142 0 0 0-2.145-2.393l.014-.021z"/>
        <path fill="#FFF" d="M64.963 25.593a1.26 1.26 0 0 1-.322-.05 1.101 1.101 0 0 1-.379-.186l-3.296-2.578a1.078 1.078 0 0 1-.4-.972l1.43-12.1c.052-.406.328-.749.715-.886l4.704-1.678a1.078 1.078 0 0 1 1.437 1.143l-1.43 11.864.05.043 3.618-2.336c.172-.112.374-.172.58-.171.145-.001.29.03.421.093.329.135.566.428.63.778l.242 1.264c.085.428-.099.863-.464 1.1l-6.95 4.515c-.177.107-.38.161-.586.157z"/>
        <path fill="#000" fill-rule="nonzero" d="M67.787 8.121l-1.523 12.386 1.022 1.029 4.383-2.8.243 1.264-6.95 4.521-3.331-2.585 1.43-12.143 4.704-1.707.022.035zm.736-2.114c-.25 0-.15.714-.386.822l-5.32 1.814c-.757.271-1.787.093-1.887.9l-1.43 12.1c-.09.744.217 1.48.808 1.943l3.325 2.614c.377.296.843.457 1.323.457h.107c.371-.02.73-.135 1.044-.336l6.95-4.514a2.142 2.142 0 0 0 .929-2.207l-.243-1.257a2.143 2.143 0 0 0-1.259-1.564c-.271-.122-.5.178-.793.178a37.49 37.49 0 0 0-3.575 2.307l.836-5.564.951-5.307a2.141 2.141 0 0 0-2.145-2.407l.765.021z"/>
        <path fill="#FFF" d="M109.499 25.714a1.073 1.073 0 0 1-1.066-1.193l1.673-14.485-4.518 2.635-1.43 12.1c-.065.536-.518.94-1.058.943h-4.52a1.066 1.066 0 0 1-.8-.357c-.204-.23-.3-.537-.264-.843L99.66 7.007c.047-.394.308-.73.68-.871l4.69-1.779a.995.995 0 0 1 .379-.071 1.08 1.08 0 0 1 1.065 1.2l-.071.578 2.71-1.628a1.073 1.073 0 0 1 1.18.057l6.14 4.45c.314.228.48.608.437.993l-1.787 14.835c-.066.544-.532.95-1.08.943h-4.504z"/>
        <path fill="#000" fill-rule="nonzero" d="M109.649 5.357l6.177 4.45-1.787 14.836h-4.505l1.938-16.614-6.835 3.985-1.537 12.629h-4.52l2.146-17.507 4.683-1.779-.308 2.75 4.583-2.75h-.035zm-4.254-2.143c-.262.002-.521.05-.765.143l-4.684 1.779a2.143 2.143 0 0 0-1.365 1.743l-2.145 17.507a2.141 2.141 0 0 0 2.145 2.4h4.519a2.144 2.144 0 0 0 2.144-1.893l1.373-11.564 2.202-1.286-1.63 13.671c-.071.607.3-.1.715.357.408.456.99.716 1.602.715h4.504a2.144 2.144 0 0 0 2.145-1.886l1.787-14.836a2.142 2.142 0 0 0-.872-1.993l-6.134-4.45a2.146 2.146 0 0 0-2.367-.1l-1.323.765a2.043 2.043 0 0 0-.543-.622 2.146 2.146 0 0 0-1.316-.457l.008.007zM77.625 3.571l-.53 4.45h3.247l-1.28 3.615h-2.395l-1.051 8.843 1.058.992 4.397-2.75.243 1.265-7.085 4.507-3.29-2.593 1.216-10.257h-2.538l.393-3.572h2.531l.336-2.857 4.748-1.643zm0-2.142a2.147 2.147 0 0 0-.715.114l-4.697 1.636c-.78.269-1.335.96-1.43 1.778l-.15.972h-.63a2.144 2.144 0 0 0-2.145 1.907l-.393 3.571a2.142 2.142 0 0 0 2.145 2.372h.565l-1.373 8.971c-.086.714.179.379.765.836l3.296 2.593c.377.298.842.461 1.323.464h.171c.37-.012.731-.123 1.044-.322l7.086-4.507a2.142 2.142 0 0 0 .958-2.214l-.243-1.257a2.143 2.143 0 0 0-1.251-1.564c-.272-.115-.322.135-.615.135s-3.454 1.957-3.804 2.143l.536-5.714s2.731-.172 3.039-1.029L82.38 8.7a2.141 2.141 0 0 0-2.017-2.857h-.858l.243-2.036a2.141 2.141 0 0 0-2.145-2.4l.022.022z"/>
        <path fill="#FFF" d="M61.63 21.936l3.297 2.578.029-.021.007.028L71.913 20l-.244-1.264-4.383 2.8-1.022-1.029 1.523-12.386-4.705 1.715z"/>
        <path fill="#000" fill-rule="nonzero" d="M97.73 5.357l-1.787 15.136 1.043 1.036 2.145-1.343-.185 1.55-4.29 2.771-3.296-2.593.05-.464-6.113 3.057-4.69-4.007 1.336-10.714 6.435-4.45 4.569 2.743.114-1.015 4.705-1.707h-.036zm-9.359 16.029l3.189-1.593.965-8.364-5.934-3.386-1.337 11.128L88.37 21.4v-.014zM97.73 3.214a2.19 2.19 0 0 0-.715.129L92.311 5.05l-.15.064-2.667-1.593a2.104 2.104 0 0 0-1.102-.307c-.434 0-.858.133-1.215.379l-6.478 4.45a2.143 2.143 0 0 0-.908 1.5l-1.337 10.714c-.093.71.175 1.421.715 1.893l4.69 4.007a2.147 2.147 0 0 0 2.353.286l4.504-2.25 2.567 2.014c.378.3.847.464 1.33.464h.164a2.146 2.146 0 0 0 1.037-.328l2.767-1.664.8-6.679.473-12.393a2.142 2.142 0 0 0-2.145-2.393h.021zM87.534 18.15l.801-6.657 1.895 1.086-.672 5.814-.994.493-1.03-.715v-.021z"/>
        <path fill="#FFF" fill-rule="nonzero" d="M99.124 20.186l-2.145 1.343-1.044-1.036 1.788-15.136-4.705 1.707-.071 1.015-4.576-2.722-6.435 4.45L80.6 20.521l4.69 4.008 6.078-3.1-.05.464 3.296 2.593 4.29-2.772.221-1.528zm-7.564-.393l-3.189 1.593-3.117-2.229L86.59 8.03l5.934 3.385-.965 8.379z"/>
        <path fill="#FFF" d="M100.983 19.471c-.063-.35-.3-.643-.629-.778a1.03 1.03 0 0 0-.994.079h-.071l-.486 4.085c1.308-.978 2.459-1.907 2.423-2.093l-.243-1.293zM74.214 24.479l.015.028L81.314 20l-.243-1.264-4.397 2.75-1.058-.993 1.05-8.843h2.396l1.28-3.614-3.246.014.529-4.45-4.748 1.607-.336 2.857-2.53.007-.394 3.579h2.495l-1.215 10.257 3.289 2.593z"/>
        <path fill="#FFF" fill-rule="nonzero" d="M42.277 37.143a1.059 1.059 0 0 1-.422-.114.851.851 0 0 1-.3-.15 1.086 1.086 0 0 1-.408-.586l-5.799-7.614a1.056 1.056 0 0 1-.214-.715l.05-.714a1.08 1.08 0 0 1 1.072-.986h6.006L44.55 7.021c.056-.403.332-.741.715-.878l4.683-1.786a1.073 1.073 0 0 1 1.444 1.129l-.078.714 2.917-1.75a1.08 1.08 0 0 1 .55-.164c.227 0 .447.073.63.207l6.12 4.45c.321.238.486.633.429 1.028l-1.63 10.715c-.036.234-.15.45-.322.614l-4.24 3.979a1.03 1.03 0 0 1-1.194.179l-5.24-2.6-.401 3.406 68.638-.085c.404 0 .773.226.958.585.186.359.15.792-.093 1.115L112 36.657c-.2.278-.522.443-.865.443h-.107l-62.632-6.386-.386 3.257c-.044.37-.277.692-.615.85l-4.219 1.95-.064.072c-.205.214-.49.336-.786.336l-.05-.036zm9.544-17.007l2.217-1.565 1.165-8.485-4.676 2.728-.715 6.322 2.01 1z"/>
        <path fill="#000" fill-rule="nonzero" d="M54.781 5.357l6.113 4.457-1.623 10.715-4.218 3.971-6.592-3.293-.715 6.114 69.86-.085-6.434 8.778-63.712-6.507-.515 4.286-4.69 2.143-6.056-7.907.057-.715h6.964l2.395-20.171 4.712-1.779-.336 2.857 4.79-2.857v-.007zm-2.86 16.036l3.132-2.236L56.576 8.03l-7.05 4.114-.908 7.593 3.304 1.65v.007zm-9.18 9.95l.272-2.286-3.69-.378 3.418 2.664zm12.04-28.129a2.104 2.104 0 0 0-1.1.307l-1.43.865a2.086 2.086 0 0 0-.587-.715 2.146 2.146 0 0 0-1.323-.45c-.258 0-.515.046-.757.136l-4.726 1.779a2.143 2.143 0 0 0-1.373 1.75l-2.145 18.3h-5.084a2.144 2.144 0 0 0-2.145 1.971l-.057.714c-.033.513.12 1.02.43 1.429l5.72 7.479a2.862 2.862 0 0 0 3.624.821l4.032-1.864a2.143 2.143 0 0 0 1.23-1.693l.243-2.186 61.603 6.286h.214c.684 0 1.327-.327 1.73-.879l6.435-8.778a2.141 2.141 0 0 0-1.73-3.407l-60.122.071 3.31-3.1c.349-.328.578-.763.65-1.236l1.624-10.678a2.142 2.142 0 0 0-.858-2.057l-6.142-4.45a2.146 2.146 0 0 0-1.266-.415zM51.528 13.45l2.31-1.35-.801 5.85-1.308.936-.801-.393.6-5.043zm-1.394 11.721l.079-.714 1.38.714h-1.459z"/>
        <path fill="#FFF" fill-rule="nonzero" d="M39.846 25.579a1.267 1.267 0 0 1-.33-.05.973.973 0 0 1-.378-.179l-3.096-2.443-5.12 2.557a1.095 1.095 0 0 1-1.194-.143l-4.69-4.007a1.07 1.07 0 0 1-.371-.95L26.025 9.68c.033-.299.188-.57.43-.75l6.505-4.45c.188-.134.414-.202.644-.193.193 0 .383.052.55.15l3.232 1.993c.12-.155.281-.274.465-.343l4.704-1.707c.109-.05.225-.081.344-.093.242-.003.478.08.664.235.293.23.445.595.4.965L42.249 20.1l.064.071 2.145-1.428c.179-.107-.843 5.321-.843 5.321-.18.143-3.575 1.515-3.768 1.515zm-6.185-5.443l2.088-1.043.815-7.1-3.918-2.229-1.058 8.893 2.073 1.479z"/>
        <path fill="#000" d="M43.857 21.914l-4.011 2.593-3.296-2.593.057-.464-6.163 3.05-4.705-4.007 1.337-10.714 6.528-4.422 4.533 2.722.121-1.015 4.64-1.707-1.758 15.136 1.044 1.036 1.859-1.172.328-2.736h-.057l-.715.465 1.444-12.479a2.142 2.142 0 0 0-2.86-2.264L37.487 5.05l-.157.064-2.66-1.593c-.322-.193-.69-.3-1.065-.307-.434 0-.858.133-1.216.379l-6.477 4.45a2.143 2.143 0 0 0-.915 1.5l-1.402 10.686c-.093.71.175 1.42.715 1.892l4.698 4.008c.386.33.878.512 1.387.514.35.01.698-.063 1.015-.214l4.504-2.25 2.56 2.014c.378.3.847.463 1.33.464h.164a2.146 2.146 0 0 0 1.037-.328l2.524-1.629.329-2.786z"/>
        <path fill="#000" fill-rule="nonzero" d="M30.444 19.157l3.16 2.229 3.182-1.593.929-8.364-5.934-3.386-1.337 11.114zm3.081-7.664l1.902 1.086-.672 5.814-.994.493-1.037-.715.801-6.678z"/>
        <path fill="url(#a)" d="M132.893 37.143a1.072 1.072 0 0 1-1.037-.786L129.71 28.5l-5.384 8.136c-.2.293-.53.471-.886.478l-8.423.029a1.063 1.063 0 0 1-.894-1.657l11.626-17.672-10.517-11.743a1.07 1.07 0 0 1 .8-1.785h9.803c.491 0 .92.332 1.044.807l2.023 7.986 5.47-8.308c.187-.29.504-.472.85-.485l8.523-.057a1.073 1.073 0 0 1 .894 1.664L133.2 23.236l11.697 12.093c.296.311.38.768.214 1.164a1.08 1.08 0 0 1-.986.65h-11.232z"/>
        <path fill="#000" fill-rule="nonzero" d="M143.746 5.3l-11.947 18.064 12.297 12.707h-11.203L130.126 25.9l-6.685 10.114-8.416.057 12.083-18.357-11.075-12.357h9.803l2.588 10.357 6.807-10.357 8.515-.057zm0-2.143l-8.515.057a2.145 2.145 0 0 0-1.78.965l-4.126 6.278-1.43-5.621a2.145 2.145 0 0 0-2.06-1.622h-9.802a2.141 2.141 0 1 0-1.602 3.571l9.975 11.13-11.182 16.978c-.43.664-2.431 3.236-2.431 3.236 1.405.117 2.816.146 4.225.085l8.415-.057a2.145 2.145 0 0 0 1.774-.964l4.075-6.157 1.559 5.6a2.145 2.145 0 0 0 2.066 1.578h11.204a2.141 2.141 0 1 0 1.537-3.629l-11.111-11.478L145.54 6.48a2.141 2.141 0 0 0-1.794-3.322z"/>
        <path fill="#FFF" d="M23.508 36.714a1.08 1.08 0 0 1-.858-.428L13.585 24.37l-1.116 11.343c-.036.548-.48.98-1.03 1H4.29c-.306 0-.598-.133-.8-.364a1.05 1.05 0 0 1-.264-.836L6.799 5.236c.062-.541.52-.95 1.066-.95h7.107a1.073 1.073 0 0 1 1.043 1.193l-.657 5.714 5.455-7.35c.201-.273.52-.434.858-.436h6.928a1.072 1.072 0 0 1 .787 1.793l-5.549 6.057-5.67 6.164L35.82 34.88a1.07 1.07 0 0 1-.786 1.835H23.508z"/>
        <path fill="#000" fill-rule="nonzero" d="M28.599 4.479l-5.548 6.05-8.258 8.992 2.366-1.614 17.875 17.736H23.508L12.87 21.629l-.072.078-1.358 13.936H4.29L7.865 5.357h7.107l-1.137 9.686L21.7 4.479h6.899zm0-2.143h-6.928c-.68 0-1.32.324-1.723.871L16.88 7.343l.2-1.743a2.142 2.142 0 0 0-2.145-2.386H7.865A2.144 2.144 0 0 0 5.72 5.107L2.145 35.393a2.142 2.142 0 0 0 2.145 2.393h7.15a2.144 2.144 0 0 0 2.145-1.936l.858-8.657 7.357 9.743c.405.535 1.037.85 1.708.85h11.526a2.141 2.141 0 1 0 1.516-3.664L19.669 17.385l5.005-5.407 5.52-6.05a2.141 2.141 0 0 0-1.58-3.572l-.015-.021z"/>
    </g>
</svg>
