<svg xmlns="http://www.w3.org/2000/svg" width="100" height="100" viewBox="0 0 100 100">
    <g fill="none" fill-rule="nonzero">
        <path stroke="#91FF4A" stroke-width="4" d="M27.437 2L2 27.598v45.386L27.676 98h44.973L98 72.673V27.98L72.72 2H27.437z"/>
        <path fill="#FFF" d="M25 40.874v-3.978c4.335 0 5.304-2.091 6.171-4.488h3.774v35.7h-5.61V40.874H25zM58.558 59.54c0 5.712-3.111 8.976-8.772 8.976s-8.772-3.264-8.772-8.976v-2.805c0-3.417 1.02-6.069 3.468-7.446-2.346-1.275-3.468-3.672-3.468-7.191v-1.122c0-5.712 3.111-8.976 8.772-8.976s8.772 3.264 8.772 8.976v1.122c0 3.519-1.173 5.916-3.468 7.191 2.448 1.377 3.468 4.029 3.468 7.446v2.805zm-11.934-.153c0 3.162 1.377 4.029 3.162 4.029s3.111-.867 3.162-4.029v-3.315c0-2.805-1.173-4.029-3.162-4.029-1.989 0-3.162 1.224-3.162 4.029v3.315zm0-18.207v1.989c0 2.856 1.326 3.774 3.162 3.774 1.785 0 3.162-.918 3.162-3.774V41.18c0-3.213-1.377-4.08-3.162-4.08s-3.162.867-3.162 4.08zm25.347.204v6.885h6.834v3.978h-6.834v6.987h-3.978v-6.987h-6.834v-3.978h6.834v-6.885h3.978z"/>
    </g>
</svg>
