<svg xmlns="http://www.w3.org/2000/svg" width="24" height="225" viewBox="0 0 24 225">
    <g fill="#403A48" fill-rule="nonzero">
        <path d="M7.97 10.151H6.652L3.965 5.756 1.23 10.15H0L3.322 4.93.226.157H1.51l2.481 3.958L6.494.157h1.237l-3.096 4.73 3.336 5.264zm4.943 0h-1.107V3.028c0-.592.018-1.153.054-1.681a7.23 7.23 0 0 1-.32.3c-.12.105-.662.55-1.628 1.333l-.601-.779L11.956.157h.957v9.994zm10.425-5.01c0 1.727-.272 3.017-.817 3.869-.545.852-1.377 1.278-2.499 1.278-1.075 0-1.893-.436-2.454-1.309-.56-.873-.84-2.152-.84-3.838 0-1.741.27-3.033.813-3.876C18.083.422 18.911 0 20.022 0c1.085 0 1.909.44 2.472 1.32.562.879.844 2.153.844 3.82zm-5.462 0c0 1.453.17 2.512.513 3.175.341.663.886.995 1.633.995.757 0 1.305-.337 1.645-1.009.339-.672.509-1.726.509-3.161 0-1.436-.17-2.488-.51-3.155-.339-.668-.887-1.002-1.644-1.002-.747 0-1.292.33-1.633.988-.342.659-.513 1.715-.513 3.169zM21.49 24.151h1v5h-1v-5zm0 13h1v5h-1v-5zm0 13h1v5h-1v-5zm0 13h1v5h-1v-5zm0 13h1v5h-1v-5zm0 13h1v5h-1v-5zm0 13h1v5h-1v-5zm0 13h1v5h-1v-5zm0 13h1v5h-1v-5zm0 13h1v5h-1v-5zm0 13h1v5h-1v-5zm0 13h1v5h-1v-5zm0 13h1v5h-1v-5zm0 13h1v5h-1v-5zm0 13h1v5h-1v-5zm0 13h1v5h-1v-5z"/>
    </g>
</svg>
