<svg xmlns="http://www.w3.org/2000/svg" width="16" height="225" viewBox="0 0 16 225">
    <g fill="#403A48" fill-rule="nonzero">
        <path d="M7.97 10.138H6.652L3.965 5.742 1.23 10.138H0l3.322-5.223L.226.144H1.51l2.481 3.958L6.494.144h1.237l-3.096 4.73 3.336 5.264zm7.308 0H8.71V9.16l2.632-2.645c.802-.812 1.33-1.39 1.586-1.737.255-.346.446-.683.574-1.011.128-.329.191-.682.191-1.06 0-.533-.161-.956-.485-1.268-.324-.312-.772-.468-1.347-.468-.414 0-.807.068-1.179.205-.371.137-.785.385-1.24.745l-.602-.773C9.759.383 10.762 0 11.847 0c.938 0 1.674.24 2.208.721.533.481.8 1.127.8 1.938 0 .634-.178 1.26-.534 1.88-.355.62-1.02 1.404-1.996 2.352l-2.187 2.14v.054h5.14v1.053zM12.488 24.138h1v5h-1v-5zm0 13h1v5h-1v-5zm0 13h1v5h-1v-5zm0 13h1v5h-1v-5zm0 13h1v5h-1v-5zm0 13h1v5h-1v-5zm0 13h1v5h-1v-5zm0 13h1v5h-1v-5zm0 13h1v5h-1v-5zm0 13h1v5h-1v-5zm0 13h1v5h-1v-5zm0 13h1v5h-1v-5zm0 13h1v5h-1v-5zm0 13h1v5h-1v-5zm0 13h1v5h-1v-5zm0 13h1v5h-1v-5z"/>
    </g>
</svg>
