<svg xmlns="http://www.w3.org/2000/svg" width="16" height="315" viewBox="0 0 16 315">
    <g fill="#403A48" fill-rule="nonzero">
        <path d="M7.97 9.994H6.652L3.965 5.6 1.23 9.994H0l3.322-5.223L.226 0H1.51l2.481 3.958L6.494 0h1.237L4.635 4.73 7.97 9.994zm3.863-6.104c1.053 0 1.881.26 2.485.782.604.522.906 1.237.906 2.143 0 1.035-.33 1.846-.988 2.434-.659.588-1.567.882-2.724.882-1.126 0-1.985-.18-2.577-.54V8.497c.319.205.715.366 1.189.482a5.87 5.87 0 0 0 1.401.174c.802 0 1.426-.189 1.87-.567.444-.378.667-.925.667-1.64 0-1.395-.855-2.092-2.564-2.092-.433 0-1.012.066-1.736.198l-.588-.376L9.55 0h4.97v1.046h-4l-.252 3a7.965 7.965 0 0 1 1.565-.156zM13.488 23.994h1v5h-1v-5zm0 13h1v5h-1v-5zm0 13h1v5h-1v-5zm0 13h1v5h-1v-5zm0 13h1v5h-1v-5zm0 13h1v5h-1v-5zm0 13h1v5h-1v-5zm0 13h1v5h-1v-5zm0 13h1v5h-1v-5zm0 13h1v5h-1v-5zm0 13h1v5h-1v-5zm0 13h1v5h-1v-5zm0 13h1v5h-1v-5zm0 13h1v5h-1v-5zm0 13h1v5h-1v-5zm0 13h1v5h-1v-5zm0 13h1v5h-1v-5zm0 13h1v5h-1v-5zm0 13h1v5h-1v-5zm0 13h1v5h-1v-5zm0 13h1v5h-1v-5zm0 13h1v5h-1v-5zm0 13h1v5h-1v-5z"/>
    </g>
</svg>
