<svg xmlns="http://www.w3.org/2000/svg" width="16" height="225" viewBox="0 0 16 225">
    <g fill="#403A48" fill-rule="nonzero">
        <path d="M12.488 24.049h1v5h-1v-5zm0 13h1v5h-1v-5zm0 13h1v5h-1v-5zm0 13h1v5h-1v-5zm0 13h1v5h-1v-5zm0 13h1v5h-1v-5zm0 13h1v5h-1v-5zm0 13h1v5h-1v-5zm0 13h1v5h-1v-5zm0 13h1v5h-1v-5zm0 13h1v5h-1v-5zm0 13h1v5h-1v-5zm0 13h1v5h-1v-5zm0 13h1v5h-1v-5zm0 13h1v5h-1v-5zm0 13h1v5h-1v-5zM7.97 10.049H6.652L3.965 5.653 1.23 10.05H0l3.322-5.223L.226.055H1.51l2.481 3.958L6.494.055h1.237l-3.096 4.73L7.97 10.05zm7.78-2.297h-1.483v2.297H13.18V7.752H8.32v-.991L13.062 0h1.204v6.72h1.483v1.032zM13.18 6.72V3.397c0-.651.022-1.387.068-2.208h-.055c-.218.438-.423.8-.615 1.087L9.454 6.72h3.726z"/>
    </g>
</svg>
