<svg xmlns="http://www.w3.org/2000/svg" width="16" height="225" viewBox="0 0 16 225">
    <g fill="#403A48" fill-rule="nonzero">
        <path d="M14.488 24.138h1v5h-1v-5zm0 13h1v5h-1v-5zm0 13h1v5h-1v-5zm0 13h1v5h-1v-5zm0 13h1v5h-1v-5zm0 13h1v5h-1v-5zm0 13h1v5h-1v-5zm0 13h1v5h-1v-5zm0 13h1v5h-1v-5zm0 13h1v5h-1v-5zm0 13h1v5h-1v-5zm0 13h1v5h-1v-5zm0 13h1v5h-1v-5zm0 13h1v5h-1v-5zm0 13h1v5h-1v-5zm0 13h1v5h-1v-5zM7.97 10.138H6.652L3.965 5.742 1.23 10.138H0l3.322-5.223L.226.144H1.51l2.481 3.958L6.494.144h1.237l-3.096 4.73 3.336 5.264zm.855-4.273c0-1.964.382-3.433 1.145-4.406C10.734.486 11.863 0 13.357 0c.515 0 .921.043 1.217.13v.977a3.893 3.893 0 0 0-1.203-.17c-1.07 0-1.889.333-2.454 1.001-.565.668-.875 1.717-.93 3.148h.082c.502-.784 1.295-1.176 2.38-1.176.897 0 1.605.271 2.122.814.517.542.776 1.278.776 2.208 0 1.039-.284 1.856-.851 2.45-.568.595-1.335.892-2.3.892-1.035 0-1.856-.388-2.462-1.165-.606-.777-.909-1.858-.909-3.244zm3.357 3.446c.647 0 1.15-.204 1.507-.612.358-.408.537-.997.537-1.767 0-.661-.167-1.18-.5-1.559-.332-.378-.829-.567-1.49-.567-.41 0-.786.084-1.128.253a2.087 2.087 0 0 0-.816.697 1.612 1.612 0 0 0-.305.923c0 .47.091.907.274 1.312.182.406.44.727.776.964.335.237.716.356 1.145.356z"/>
    </g>
</svg>
