<svg xmlns="http://www.w3.org/2000/svg" width="16" height="315" viewBox="0 0 16 315">
    <g fill="#403A48" fill-rule="nonzero">
        <path d="M7.97 9.994H6.652L3.965 5.6 1.23 9.994H0l3.322-5.223L.226 0H1.51l2.481 3.958L6.494 0h1.237L4.635 4.73 7.97 9.994zm2.004 0l4.142-8.948H8.668V0h6.651v.91l-4.088 9.084H9.974zM14.488 23.994h1v5h-1v-5zm0 13h1v5h-1v-5zm0 13h1v5h-1v-5zm0 13h1v5h-1v-5zm0 13h1v5h-1v-5zm0 13h1v5h-1v-5zm0 13h1v5h-1v-5zm0 13h1v5h-1v-5zm0 13h1v5h-1v-5zm0 13h1v5h-1v-5zm0 13h1v5h-1v-5zm0 13h1v5h-1v-5zm0 13h1v5h-1v-5zm0 13h1v5h-1v-5zm0 13h1v5h-1v-5zm0 13h1v5h-1v-5zm0 13h1v5h-1v-5zm0 13h1v5h-1v-5zm0 13h1v5h-1v-5zm0 13h1v5h-1v-5zm0 13h1v5h-1v-5zm0 13h1v5h-1v-5zm0 13h1v5h-1v-5z"/>
    </g>
</svg>
