<svg xmlns="http://www.w3.org/2000/svg" width="16" height="316" viewBox="0 0 16 316">
    <g fill="#403A48" fill-rule="nonzero">
        <path d="M7.97 10.138H6.652L3.965 5.742 1.23 10.138H0l3.322-5.223L.226.144H1.51l2.481 3.958L6.494.144h1.237l-3.096 4.73 3.336 5.264zM12.019 0c.911 0 1.633.212 2.167.636.533.424.8 1.01.8 1.757 0 .492-.153.94-.459 1.346-.305.406-.793.775-1.463 1.108.812.387 1.388.794 1.73 1.22.342.426.513.92.513 1.48 0 .83-.29 1.491-.868 1.986-.58.494-1.372.741-2.38.741-1.066 0-1.886-.233-2.46-.7-.575-.467-.862-1.13-.862-1.986 0-1.144.698-2.035 2.092-2.673-.629-.355-1.08-.74-1.353-1.152a2.45 2.45 0 0 1-.41-1.384c0-.725.267-1.302.803-1.733C10.403.216 11.12 0 12.018 0zm-2.16 7.615c0 .547.19.973.57 1.279.38.305.915.458 1.603.458.68 0 1.208-.16 1.586-.479.378-.319.568-.756.568-1.312 0-.443-.178-.836-.534-1.18-.355-.344-.975-.678-1.859-1.001-.679.292-1.171.614-1.477.967a1.874 1.874 0 0 0-.458 1.268zM12.003.923c-.57 0-1.016.137-1.34.41-.324.273-.485.638-.485 1.094 0 .419.134.78.403 1.08.269.3.766.601 1.49.902.652-.273 1.113-.567 1.385-.882.27-.314.406-.681.406-1.1 0-.46-.165-.826-.495-1.097-.33-.272-.785-.407-1.364-.407zM13.488 24.138h1v5h-1v-5zm0 13h1v5h-1v-5zm0 13h1v5h-1v-5zm0 13h1v5h-1v-5zm0 13h1v5h-1v-5zm0 13h1v5h-1v-5zm0 13h1v5h-1v-5zm0 13h1v5h-1v-5zm0 13h1v5h-1v-5zm0 13h1v5h-1v-5zm0 13h1v5h-1v-5zm0 13h1v5h-1v-5zm0 13h1v5h-1v-5zm0 13h1v5h-1v-5zm0 13h1v5h-1v-5zm0 13h1v5h-1v-5zm0 13h1v5h-1v-5zm0 13h1v5h-1v-5zm0 13h1v5h-1v-5zm0 13h1v5h-1v-5zm0 13h1v5h-1v-5zm0 13h1v5h-1v-5zm0 13h1v5h-1v-5z"/>
    </g>
</svg>
