<svg xmlns="http://www.w3.org/2000/svg" width="16" height="225" viewBox="0 0 16 225">
    <g fill="#403A48" fill-rule="nonzero">
        <path d="M13.488 24.138h1v5h-1v-5zm0 13h1v5h-1v-5zm0 13h1v5h-1v-5zm0 13h1v5h-1v-5zm0 13h1v5h-1v-5zm0 13h1v5h-1v-5zm0 13h1v5h-1v-5zm0 13h1v5h-1v-5zm0 13h1v5h-1v-5zm0 13h1v5h-1v-5zm0 13h1v5h-1v-5zm0 13h1v5h-1v-5zm0 13h1v5h-1v-5zm0 13h1v5h-1v-5zm0 13h1v5h-1v-5zm0 13h1v5h-1v-5zM7.97 10.138H6.652L3.965 5.742 1.23 10.138H0l3.322-5.223L.226.144H1.51l2.481 3.958L6.494.144h1.237l-3.096 4.73 3.336 5.264zm7.308-5.729c0 3.91-1.513 5.865-4.539 5.865-.528 0-.948-.045-1.258-.136V9.16c.365.119.78.178 1.245.178 1.093 0 1.92-.338 2.478-1.015.558-.677.862-1.715.912-3.114h-.082c-.25.378-.583.666-.998.865a3.209 3.209 0 0 1-1.401.297c-.884 0-1.586-.264-2.106-.793-.52-.529-.779-1.267-.779-2.215 0-1.039.29-1.86.872-2.46C10.202.3 10.967 0 11.915 0c.68 0 1.273.174 1.78.523.509.349.9.857 1.173 1.524.274.668.41 1.455.41 2.362zM11.915.971c-.652 0-1.155.21-1.51.629-.356.419-.534 1.002-.534 1.75 0 .656.164 1.172.492 1.548.328.376.827.564 1.497.564.415 0 .797-.084 1.145-.253.349-.169.624-.399.824-.69.2-.292.3-.597.3-.916 0-.479-.093-.921-.28-1.327a2.312 2.312 0 0 0-.782-.957 1.971 1.971 0 0 0-1.152-.348z"/>
    </g>
</svg>
