<?xml version="1.0" encoding="UTF-8"?>
<svg width="47px" height="18px" viewBox="0 0 47 18" version="1.1" xmlns="http://www.w3.org/2000/svg" xmlns:xlink="http://www.w3.org/1999/xlink">
    <!-- Generator: sketchtool 55.2 (78181) - https://sketchapp.com -->
    <title>B68ABEBC-BA79-4E52-A459-3670FC67C677</title>
    <desc>Created with sketchtool.</desc>
    <g id="Desktop" stroke="none" stroke-width="1" fill="none" fill-rule="evenodd">
        <g id="Double" transform="translate(-308.000000, -687.000000)" fill="#91FF4A" fill-rule="nonzero">
            <g id="comps/table/all-desktop-copy" transform="translate(306.000000, 686.000000)">
                <path d="M20.0053711,19 L14.4267578,19 L10.9477539,13.4213867 L7.50537109,19 L2.04882812,19 L7.96923828,9.86914062 L2.40283203,1.15332031 L7.74951172,1.15332031 L10.972168,6.67089844 L14.0727539,1.15332031 L19.578125,1.15332031 L13.9262695,10.2475586 L20.0053711,19 Z M31.5776367,19 L26.6826172,19 L26.6826172,9.55175781 C26.6826172,8.40429114 26.707031,7.35449695 26.7558594,6.40234375 C26.4547511,6.76855652 26.0804059,7.15103967 25.6328125,7.54980469 L23.6064453,9.22216797 L21.1040039,6.14599609 L27.2319336,1.15332031 L31.5776367,1.15332031 L31.5776367,19 Z M48.9970703,15.5454102 L47.0317383,15.5454102 L47.0317383,19 L42.2709961,19 L42.2709961,15.5454102 L35.1542969,15.5454102 L35.1542969,12.0053711 L42.5761719,1.15332031 L47.0317383,1.15332031 L47.0317383,11.9443359 L48.9970703,11.9443359 L48.9970703,15.5454102 Z M42.2709961,11.9443359 L42.2709961,9.86914062 C42.2709961,9.47851367 42.2852375,8.95158209 42.3137207,8.28833008 C42.3422039,7.62507806 42.3645833,7.27718115 42.3808594,7.24462891 L42.246582,7.24462891 C41.9698879,7.87125964 41.6565773,8.45719128 41.3066406,9.00244141 L39.3291016,11.9443359 L42.2709961,11.9443359 Z" id="X14"></path>
            </g>
        </g>
    </g>
</svg>