<?xml version="1.0" encoding="UTF-8"?>
<svg width="32px" height="19px" viewBox="0 0 32 19" version="1.1" xmlns="http://www.w3.org/2000/svg" xmlns:xlink="http://www.w3.org/1999/xlink">
    <!-- Generator: sketchtool 55.2 (78181) - https://sketchapp.com -->
    <title>1B7AC25D-1F23-42DD-8429-8E17B3A1A254</title>
    <desc>Created with sketchtool.</desc>
    <g id="Desktop" stroke="none" stroke-width="1" fill="none" fill-rule="evenodd">
        <g id="Double" transform="translate(-27.000000, -686.000000)" fill="#ED1010" fill-rule="nonzero">
            <g id="comps/table/all-desktop" transform="translate(26.000000, 686.000000)">
                <g id="Title" transform="translate(1.000000, 0.000000)">
                    <path d="M18.0053711,19 L12.4267578,19 L8.94775391,13.4213867 L5.50537109,19 L0.048828125,19 L5.96923828,9.86914062 L0.402832031,1.15332031 L5.74951172,1.15332031 L8.97216797,6.67089844 L12.0727539,1.15332031 L17.578125,1.15332031 L11.9262695,10.2475586 L18.0053711,19 Z M31.7749023,19 L18.8232422,19 L18.8232422,15.8261719 L23.1811523,11.4194336 C24.4262758,10.1173437 25.2400697,9.22827386 25.6225586,8.75219727 C26.0050475,8.27612067 26.271565,7.86718921 26.4221191,7.52539062 C26.5726733,7.18359204 26.6479492,6.82552271 26.6479492,6.45117188 C26.6479492,5.98730237 26.4973973,5.62109509 26.1962891,5.35253906 C25.8951808,5.08398303 25.4720079,4.94970703 24.9267578,4.94970703 C24.3652316,4.94970703 23.7976103,5.11043134 23.223877,5.43188477 C22.6501436,5.7533382 22.0011429,6.22737317 21.2768555,6.85400391 L18.6279297,3.75341797 C19.5475306,2.93147375 20.3206349,2.34350763 20.9472656,1.98950195 C21.5738964,1.63549628 22.2554488,1.36490979 22.9919434,1.17773438 C23.7284379,0.99055896 24.5564733,0.896972656 25.4760742,0.896972656 C26.631679,0.896972656 27.6631628,1.10042114 28.5705566,1.50732422 C29.4779505,1.91422729 30.1818823,2.49405548 30.682373,3.24682617 C31.1828638,3.99959686 31.4331055,4.84390808 31.4331055,5.77978516 C31.4331055,6.47965845 31.3456226,7.12662463 31.1706543,7.72070312 C30.995686,8.31478162 30.7250995,8.89867877 30.3588867,9.47241211 C29.992674,10.0461454 29.5064321,10.6503875 28.9001465,11.2851562 C28.2938609,11.919925 27.001963,13.1243401 25.0244141,14.8984375 L25.0244141,15.0205078 L31.7749023,15.0205078 L31.7749023,19 Z" id="X2"></path>
                </g>
            </g>
        </g>
    </g>
</svg>