<?xml version="1.0" encoding="UTF-8"?>
<svg width="37px" height="21px" viewBox="0 0 37 21" version="1.1" xmlns="http://www.w3.org/2000/svg" xmlns:xlink="http://www.w3.org/1999/xlink">
    <!-- Generator: sketchtool 55.2 (78181) - https://sketchapp.com -->
    <title>E192AF48-0AB7-4AB1-8DE3-0F21D8EB4E71</title>
    <desc>Created with sketchtool.</desc>
    <g id="Desktop" stroke="none" stroke-width="1" fill="none" fill-rule="evenodd">
        <g id="Double" transform="translate(-586.000000, -685.000000)" fill="#000000" fill-rule="nonzero" stroke="#FFFFFF">
            <g id="comps/table/all-desktop-copy" transform="translate(306.000000, 686.000000)">
                <path d="M290.901174,13.4729052 L287.73554,18.6030273 L281.079896,18.6030273 L287.325832,8.97012028 L281.441405,-0.243652344 L287.987686,-0.243652344 L290.914964,4.76820316 L293.731361,-0.243652344 L300.428727,-0.243652344 L294.475616,9.33532783 L300.912596,18.6030273 L294.100484,18.6030273 L290.901174,13.4729052 Z M310.142294,13.6235352 L316.226074,13.6235352 L316.226074,18.6030273 L302.274414,18.6030273 L302.274414,14.7237223 L302.418897,14.5776209 L306.770954,10.1769009 C308.006207,8.88513327 308.813419,8.00325381 309.183947,7.54206521 C309.541338,7.09722799 309.78535,6.72282692 309.915714,6.42686613 C310.038276,6.1486172 310.099121,5.85919135 310.099121,5.55419922 C310.099121,5.22760905 310.004881,4.99837652 309.814654,4.82871412 C309.613702,4.64948668 309.308785,4.55273438 308.87793,4.55273438 C308.405789,4.55273438 307.921342,4.68990754 307.419445,4.97111235 C306.878375,5.2742647 306.255753,5.72903252 305.555169,6.33515602 L305.174681,6.66434268 L301.881355,2.80948203 L302.245897,2.48365214 C303.189975,1.6398301 303.989613,1.03168451 304.652502,0.657195239 C305.318241,0.281095788 306.041111,-0.00589418689 306.819958,-0.203833381 C307.59881,-0.401773634 308.4679,-0.5 309.427246,-0.5 C310.650859,-0.5 311.751908,-0.282830512 312.726315,0.154123237 C313.71775,0.598713043 314.495793,1.23958651 315.049916,2.07302302 C315.605456,2.90859062 315.884277,3.84933084 315.884277,4.8828125 C315.884277,5.6291182 315.790378,6.32353799 315.601457,6.96499148 C315.41287,7.60530796 315.122458,8.23198776 314.73152,8.84445718 C314.34663,9.44745121 313.840347,10.076598 313.212891,10.7335317 C312.685738,11.2854499 311.664081,12.2468247 310.142294,13.6235352 Z" id="X2"></path>
            </g>
        </g>
    </g>
</svg>