<svg xmlns="http://www.w3.org/2000/svg" width="199" height="47" viewBox="0 0 199 47">
    <g fill="none" fill-rule="nonzero">
        <path fill="#91FF4A" d="M23.905 3.291H.13V.376h23.775v2.915zm4.131 2.157L40.59 39h-3.81L24.296 5.448h3.741zM62.185 46.23H40.934v-3.006h21.25v3.006zm1.79-20.104c0-4.054.592-7.848 1.778-11.382 1.186-3.535 2.896-6.633 5.13-9.295H74.6a32.355 32.355 0 0 0-4.968 9.73 36.191 36.191 0 0 0-1.664 10.902c0 3.671.566 7.26 1.698 10.763 1.132 3.503 2.762 6.7 4.888 9.593h-3.672c-2.249-2.601-3.962-5.638-5.14-9.111-1.178-3.473-1.767-7.206-1.767-11.2z"/>
        <path fill="#FFF" d="M94.988 4.173c2.256 3.29 4.653 7.379 7.191 12.361l-3.149 1.974c-1.551-2.961-2.679-5.076-3.384-6.298a77.606 77.606 0 0 0-3.807-6.204l3.149-1.833zm19.27 1.645l3.807.611c-1.551 8.46-4.23 15.51-8.037 21.15-4.418 6.486-10.481 11.186-18.189 14.1l-2.303-3.196c7.285-2.773 12.972-7.097 17.108-12.925 3.572-5.123 6.11-11.703 7.614-19.74zM84.037 7.745c2.35 3.431 4.794 7.614 7.285 12.502l-3.243 1.927a110.1 110.1 0 0 0-3.337-6.204c-1.222-2.256-2.538-4.324-3.854-6.251l3.149-1.974z"/>
        <path fill="#91FF4A" d="M135.025 26.125c0 4.024-.592 7.773-1.778 11.246-1.186 3.473-2.896 6.494-5.13 9.065h-3.671c2.126-2.877 3.756-6.07 4.888-9.582a34.9 34.9 0 0 0 1.698-10.774c0-3.734-.554-7.367-1.664-10.901a32.355 32.355 0 0 0-4.968-9.73h3.718c2.249 2.677 3.962 5.786 5.14 9.328 1.178 3.542 1.767 7.325 1.767 11.348zm23.041 20.104h-21.25v-3.006h21.25v3.006zm16.684-40.78L162.243 39h-3.81l12.508-33.552h3.81zm24.12-2.158h-23.775V.376h23.775v2.915z"/>
    </g>
</svg>
